<?xml version="1.0" encoding="utf-8"?>
<!-- Generator: Adobe Illustrator 18.0.0, SVG Export Plug-In . SVG Version: 6.00 Build 0)  -->
<!DOCTYPE svg PUBLIC "-//W3C//DTD SVG 1.1//EN" "http://www.w3.org/Graphics/SVG/1.1/DTD/svg11.dtd">
<svg version="1.1" id="Layer_1" xmlns="http://www.w3.org/2000/svg" xmlns:xlink="http://www.w3.org/1999/xlink" x="0px" y="0px"
	 viewBox="0 0 216 146" enable-background="new 0 0 216 146" xml:space="preserve">
<g>
	<path d="M115,146c-2.5-2.5-5.9-0.7-8.9-1.7c-5.1-1.7-7.8-4.5-8.5-9.6c-0.9-5.9-1.2-11.9-0.9-17.8c0.8-17.5-4-34.1-8.2-50.8
		c-2.7-11-5.7-22-6.1-33.4c-0.1-2-1.4-1.6-2.3-1.5c-9.6,0.6-19.2,1.9-28.7,1.8c-14.4-0.1-29,0.6-43-4.4C4,27,1.2,24.4,0,20
		c0-2.7,0-5.3,0-8c7.2-6.9,15.8-9.1,25.1-5.9c5.2,1.8,9.9,1.5,15,1c7.6-0.7,15.6-2,22.7,0.5c4.9,1.7,8.4,2,12.4-0.8
		c1-0.7,2-1,3.2-1.1c9-0.6,18-2.6,26.8,1c0.8,0.3,1.7,0.3,1.7,1.4c-0.1,1.3-1.5,0.6-2.1,1.3c4.6-0.2,5.4-0.6,4.2-3.1
		c-1.7-3.6,0.5-3,2.5-3.2c16.3-2.3,32.7-2.8,49.1-2.5c2.5,0,5,0.5,7.4-0.6c4.7,0,9.3,0,14,0c5.8,0.4,11.4,2.9,17.5,1.7
		c2.6-0.5,5.3,0,7.9,0c3.3,0,3.5,3,4.6,5c0.8,1.4,0.5,3.1-1.8,3.9c3.1-0.1,4.8,0.9,4.1,4c-0.4,1.9,0.4,3.2,1.7,4.3c0,0.3,0,0.7,0,1
		c-5.9,8.8-14.2,8.4-23.6,7.5c-20.5-1.9-41-2.3-61.5,0.6c-6.2,0.9-12.6,1-18.8,1.2c-3.6,0.1-5.2,0.8-4,5
		c3.7,13.1,7.5,26.1,10.2,39.4c1.6,7.9,5.7,15.6,5.4,23.4c-0.4,8.8,3.1,17.2,1.5,26.1c-0.8,4.3,1.8,8.8,0.3,13.3
		c-0.7,2.2-0.5,4.6-3.9,4.7c-2.9,0.1-2.8,3.5-4.5,4.8C116.3,146,115.7,146,115,146z"/>
</g>
</svg>
